<?xml version="1.0" encoding="UTF-8"?>
<svg version="1.1" xmlns="http://www.w3.org/2000/svg" width="500" height="500">
<path d="M0 0 C165 0 330 0 500 0 C500 165 500 330 500 500 C335 500 170 500 0 500 C0 335 0 170 0 0 Z " fill="#F9F2DF" transform="translate(0,0)"/>
<path d="M0 0 C-0.08378906 0.68707031 -0.16757812 1.37414062 -0.25390625 2.08203125 C-0.35574219 2.98308594 -0.45757812 3.88414062 -0.5625 4.8125 C-0.66691406 5.70582031 -0.77132812 6.59914062 -0.87890625 7.51953125 C-1.15658709 10.13375572 -1.15658709 10.13375572 0 13 C0.86680326 21.66803264 -0.49583855 28.40834017 -5.8125 35.375 C-11.90671884 39.90213399 -17.54733424 40.87607826 -25 40 C-30.75561476 38.20726753 -34.93951668 35.63273967 -37.97265625 30.28515625 C-41.08880625 23.1977267 -41.20901646 15.36108396 -38.5 8.125 C-36.52487643 4.35738414 -34.4148715 1.84137613 -30.65625 -0.19921875 C-21.25655985 -3.03294887 -9.57110493 -1.01511719 0 0 Z " fill="#10624F" transform="translate(261,232)"/>
<path d="M0 0 C0 8.25 0 16.5 0 25 C0.66 25 1.32 25 2 25 C2 24.34 2 23.68 2 23 C6.02246404 19.39365293 10.27558096 19.55623436 15.40625 19.71484375 C18.68430096 20.07523188 20.54780131 20.77769494 23 23 C25.66410561 26.7395878 26.3741389 29.31928014 26.40625 33.88671875 C26.42816406 34.98951172 26.45007813 36.09230469 26.47265625 37.22851562 C26.49097805 39.54622323 26.50920628 41.86393157 26.52734375 44.18164062 C26.54925781 45.28056641 26.57117188 46.37949219 26.59375 47.51171875 C26.60083984 48.51678467 26.60792969 49.52185059 26.61523438 50.55737305 C26.74220703 51.36343994 26.86917969 52.16950684 27 53 C27.99 53.66 28.98 54.32 30 55 C30.1875 57.625 30.1875 57.625 30 60 C27.68756208 60.02685412 25.3750373 60.04632841 23.0625 60.0625 C21.77472656 60.07410156 20.48695313 60.08570313 19.16015625 60.09765625 C16 60 16 60 15 59 C14.84019563 56.55391002 14.74070553 54.13268942 14.68359375 51.68359375 C14.66281265 50.95253922 14.64203156 50.22148468 14.62062073 49.46827698 C14.55504976 47.12478344 14.49620568 44.78117461 14.4375 42.4375 C14.39432192 40.85220145 14.35070787 39.26691471 14.30664062 37.68164062 C14.1993608 33.78787963 14.0981151 29.89400228 14 26 C8.42659085 25.47737957 8.42659085 25.47737957 3.53100586 27.65185547 C1.6643674 30.51476868 1.49741893 32.16813754 1.50390625 35.5703125 C1.50326172 36.63121094 1.50261719 37.69210938 1.50195312 38.78515625 C1.53192383 40.43837891 1.53192383 40.43837891 1.5625 42.125 C1.55541016 43.23488281 1.54832031 44.34476563 1.54101562 45.48828125 C1.53785262 49.76429188 1.53785262 49.76429188 2 54 C2.99 54.66 3.98 55.32 5 56 C4.67 57.32 4.34 58.64 4 60 C-1.94 60 -7.88 60 -14 60 C-14.33 58.68 -14.66 57.36 -15 56 C-14.02208496 55.56433716 -14.02208496 55.56433716 -13.02441406 55.11987305 C-9.70920477 51.64833876 -10.50882113 47.69429033 -10.609375 43.08203125 C-10.61786469 41.62345955 -10.61786469 41.62345955 -10.62652588 40.13542175 C-10.64893071 37.027282 -10.69913519 33.92029176 -10.75 30.8125 C-10.77005967 28.70639685 -10.78831136 26.60027564 -10.8046875 24.49414062 C-10.84880907 19.32898364 -10.9178654 14.16468676 -11 9 C-12.32 8.34 -13.64 7.68 -15 7 C-14.73046875 5.109375 -14.73046875 5.109375 -14 3 C-12.36328125 1.953125 -12.36328125 1.953125 -10.3125 1.25 C-9.64863281 1.00765625 -8.98476563 0.7653125 -8.30078125 0.515625 C-6 0 -6 0 0 0 Z " fill="#0D604E" transform="translate(314,211)"/>
<path d="M0 0 C3.19348948 1.28701836 5.42171924 2.84343848 7 6 C7.1875 9.5 7.1875 9.5 7 13 C5 15 5 15 2.5 15.25 C0 15 0 15 -2 13 C-2.40047444 10.67724823 -2.7397104 8.34260643 -3 6 C-7.14093698 5.79029441 -7.14093698 5.79029441 -11 7 C-11.02687279 8.81242052 -11.04633715 10.62495233 -11.0625 12.4375 C-11.07410156 13.44683594 -11.08570313 14.45617187 -11.09765625 15.49609375 C-11.28612676 17.94021067 -11.28612676 17.94021067 -10 19 C-8.48530552 19.23192865 -6.96245438 19.41215238 -5.4375 19.5625 C-4.61121094 19.64628906 -3.78492188 19.73007813 -2.93359375 19.81640625 C-1.97646484 19.90728516 -1.97646484 19.90728516 -1 20 C-0.61781233 21.65614657 -0.28604898 23.32457024 0 25 C-1 26 -1 26 -3.06640625 26.09765625 C-3.89011719 26.08605469 -4.71382812 26.07445312 -5.5625 26.0625 C-6.38878906 26.05347656 -7.21507812 26.04445312 -8.06640625 26.03515625 C-9.02353516 26.01775391 -9.02353516 26.01775391 -10 26 C-9.91946759 30.45909298 -9.8065955 34.9167834 -9.6875 39.375 C-9.66494141 40.64601562 -9.64238281 41.91703125 -9.61914062 43.2265625 C-9.5659668 45.04414063 -9.5659668 45.04414063 -9.51171875 46.8984375 C-9.48553467 48.01911621 -9.45935059 49.13979492 -9.43237305 50.29443359 C-9.28968994 51.18727051 -9.14700684 52.08010742 -9 53 C-8.01 53.66 -7.02 54.32 -6 55 C-6 56.65 -6 58.3 -6 60 C-11.94 60 -17.88 60 -24 60 C-24.33 58.68 -24.66 57.36 -25 56 C-24.01 55.34 -23.02 54.68 -22 54 C-21.48853802 51.09386566 -21.48853802 51.09386566 -21.48828125 47.6796875 C-21.45283203 46.42285156 -21.41738281 45.16601562 -21.38085938 43.87109375 C-21.35830078 42.55238281 -21.33574219 41.23367187 -21.3125 39.875 C-21.27933471 38.53512241 -21.24484578 37.19527689 -21.20898438 35.85546875 C-21.12626673 32.5703967 -21.05719307 29.28559968 -21 26 C-22.65 26 -24.3 26 -26 26 C-26.38218767 24.34385343 -26.71395102 22.67542976 -27 21 C-26 20 -26 20 -23.4375 19.9375 C-22.2309375 19.9684375 -22.2309375 19.9684375 -21 20 C-21.03480469 19.34773438 -21.06960937 18.69546875 -21.10546875 18.0234375 C-21.27377137 12.58966721 -21.2744013 8.58416183 -18 4 C-12.82870953 -1.03869328 -6.82443894 -0.95224729 0 0 Z " fill="#106250" transform="translate(180,211)"/>
<path d="M0 0 C1.31613281 -0.02578125 2.63226563 -0.0515625 3.98828125 -0.078125 C8.82763776 0.35113154 11.3071481 1.8696481 14.6875 5.25 C14.875 8.3125 14.875 8.3125 14.6875 11.25 C13.6875 12.25 13.6875 12.25 10.625 12.3125 C9.655625 12.291875 8.68625 12.27125 7.6875 12.25 C6.6975 10.27 5.7075 8.29 4.6875 6.25 C2.35455225 6.20758277 0.02047433 6.20907063 -2.3125 6.25 C-3.63995166 7.36258591 -3.63995166 7.36258591 -3.5625 10.1875 C-3.43875 11.7034375 -3.43875 11.7034375 -3.3125 13.25 C-0.15788078 15.35307948 1.89159352 15.81641801 5.5625 16.5625 C10.57174943 17.79358672 13.88112924 18.63953376 16.6875 23.25 C17.47250631 27.5675347 17.1738587 31.07249998 15.5 35.125 C11.83004881 39.42770139 7.66498916 40.96797075 2.171875 41.48828125 C-4.13873228 41.65956916 -9.14536065 41.12211696 -14.3125 37.25 C-16.3125 34.25 -16.3125 34.25 -16 31.625 C-15.3125 29.25 -15.3125 29.25 -14.3125 28.25 C-12 27.8125 -12 27.8125 -9.3125 28.25 C-8.735 29.24 -8.1575 30.23 -7.5625 31.25 C-5.70016847 34.43084299 -5.70016847 34.43084299 -3.09765625 34.68359375 C-0.78342389 34.68724973 1.40223264 34.61619903 3.6875 34.25 C5.65572886 32.28177114 5.34998381 28.90191291 5.6875 26.25 C4.73488281 26.07984375 3.78226562 25.9096875 2.80078125 25.734375 C1.54652344 25.49203125 0.29226563 25.2496875 -1 25 C-2.24136719 24.76796875 -3.48273438 24.5359375 -4.76171875 24.296875 C-8.5007629 23.19449455 -10.5174488 21.92578185 -13.3125 19.25 C-15.28948481 15.29603037 -14.88319292 10.54880647 -14.3125 6.25 C-10.05395531 0.64665173 -6.68492564 0.05098132 0 0 Z " fill="#0D604E" transform="translate(280.3125,230.75)"/>
<path d="M0 0 C0.66 1.98 1.32 3.96 2 6 C2.42410156 5.566875 2.84820312 5.13375 3.28515625 4.6875 C6.55018688 1.58751487 8.22513085 0.10162218 12.8125 -0.5 C16 0 16 0 18 2 C18.25 4.5 18.25 4.5 18 7 C15.32447093 9.67552907 13.0478875 9.57446613 9.38671875 10.046875 C5.86061396 11.4550085 3.77853283 13.72809994 2 17 C1.36979176 19.78779377 1.38534205 22.40439827 1.5 25.25 C1.49742187 25.96929687 1.49484375 26.68859375 1.4921875 27.4296875 C1.49586066 29.75687016 1.49586066 29.75687016 2 33 C2.99 33.66 3.98 34.32 5 35 C5 36.65 5 38.3 5 40 C-1.27 40 -7.54 40 -14 40 C-13.67 38.35 -13.34 36.7 -13 35 C-11.515 34.505 -11.515 34.505 -10 34 C-10.08055808 29.8741803 -10.19342685 25.74987369 -10.3125 21.625 C-10.34633789 19.8615625 -10.34633789 19.8615625 -10.38085938 18.0625 C-10.41630859 16.94101563 -10.45175781 15.81953125 -10.48828125 14.6640625 C-10.51446533 13.62717285 -10.54064941 12.5902832 -10.56762695 11.52197266 C-10.71031006 10.68972168 -10.85299316 9.8574707 -11 9 C-11.99 8.34 -12.98 7.68 -14 7 C-13.67 5.35 -13.34 3.7 -13 2 C-8.46298506 0.54815522 -4.81938524 -0.23509196 0 0 Z " fill="#0C5F4D" transform="translate(202,231)"/>
<path d="M0 0 C1.051875 0.12375 2.10375 0.2475 3.1875 0.375 C2.548125 1.509375 1.90875 2.64375 1.25 3.8125 C-1.05079974 8.35718923 -1.49653541 12.31956654 -1.8125 17.375 C1.8175 17.045 5.4475 16.715 9.1875 16.375 C8.70713048 25.50202079 8.70713048 25.50202079 6.625 29 C3.13171864 30.97056898 0.104701 31.18739692 -3.8125 30.375 C-6.78108157 28.16759319 -7.64115791 26.88902627 -8.8125 23.375 C-9.01306689 20.58712018 -9.13534555 17.85276317 -9.1875 15.0625 C-9.24357422 13.94198242 -9.24357422 13.94198242 -9.30078125 12.79882812 C-9.36482011 8.74659115 -9.05248806 6.11633055 -6.52734375 2.85546875 C-3.8125 0.375 -3.8125 0.375 0 0 Z " fill="#F5F0DC" transform="translate(240.8125,235.625)"/>
<path d="M0 0 C-1.10210812 8.02729495 -3.08259131 14.4183692 -9.1875 20 C-13.42711155 21.50741744 -17.54734386 21.23344022 -22 21 C-22.65456726 14.1270438 -21.80371797 10.42932384 -17.625 4.88671875 C-12.56494838 -0.98829311 -7.30106806 -0.34523439 0 0 Z " fill="#86B54A" transform="translate(261,232)"/>
</svg>
